<svg width="100" height="41" viewBox="0 0 100 41" fill="none" xmlns="http://www.w3.org/2000/svg">
<circle cx="80" cy="21" r="20" fill="#43D854"/>
<circle cx="20" cy="20" r="20" fill="#34AADF"/>
<g clip-path="url(#clip0_112_2)">
<path d="M85.1356 23.211C84.9146 23.1011 83.4778 22.4419 83.2568 22.3321C83.0358 22.2222 82.8147 22.2222 82.5937 22.4419C82.3727 22.6617 81.9306 23.3208 81.7096 23.5406C81.599 23.7603 81.378 23.7603 81.157 23.6504C80.3833 23.3208 79.6097 22.8814 78.9466 22.3321C78.394 21.7828 77.8414 21.1236 77.3994 20.4644C77.2888 20.2447 77.3994 20.025 77.5099 19.9151C77.6204 19.8052 77.7309 19.5855 77.9519 19.4757C78.0625 19.3658 78.173 19.1461 78.173 19.0362C78.2835 18.9263 78.2835 18.7066 78.173 18.5968C78.0625 18.4869 77.5099 17.1685 77.2888 16.6192C77.1783 15.8502 76.9573 15.8502 76.7362 15.8502H76.1837C75.9626 15.8502 75.6311 16.0699 75.5206 16.1798C74.8574 16.839 74.5259 17.608 74.5259 18.4869C74.6364 19.4757 74.968 20.4644 75.6311 21.3433C76.8468 23.1011 78.394 24.5293 80.2728 25.4082C80.8254 25.628 81.2675 25.8477 81.8201 25.9576C82.3727 26.1773 82.9252 26.1773 83.5884 26.0674C84.362 25.9576 85.0251 25.4082 85.4672 24.7491C85.6882 24.3096 85.6882 23.8702 85.5777 23.4307L85.1356 23.211ZM87.8986 13.2135C83.5884 8.92884 76.6257 8.92884 72.3155 13.2135C68.779 16.7291 68.1159 22.1124 70.5472 26.397L69 32L74.8574 30.4619C76.5152 31.3408 78.2835 31.7803 80.0518 31.7803C86.1303 31.7803 90.9931 26.9463 90.9931 20.9039C91.1036 18.0474 89.8879 15.3009 87.8986 13.2135ZM84.9146 28.5943C83.4778 29.4732 81.8201 30.0225 80.0518 30.0225C78.394 30.0225 76.8468 29.583 75.41 28.814L75.0785 28.5943L71.6524 29.4732L72.5366 26.1773L72.3155 25.8477C69.6631 21.4532 70.9893 15.9601 75.2995 13.2135C79.6097 10.4669 85.1356 11.8951 87.788 16.0699C90.4405 20.3546 89.2248 25.9576 84.9146 28.5943Z" fill="white"/>
</g>
<path fill-rule="evenodd" clip-rule="evenodd" d="M14.81 22.8808L10.1505 20.9533C9.6611 20.7504 9.35002 20.2823 9.36581 19.7715C9.38252 19.2608 9.72145 18.8114 10.2229 18.6378C13.6242 17.4578 23.9119 13.8876 26.8926 12.8527C27.3439 12.697 27.8481 12.7913 28.2047 13.0983C28.5612 13.4062 28.7117 13.877 28.5974 14.3237C27.9345 16.8937 25.8842 24.8474 25.2583 27.275C25.1497 27.6977 24.8182 28.035 24.3855 28.1649C23.9518 28.2957 23.4792 28.1996 23.1384 27.9122L19.9766 25.2505L17.5019 27.5242C17.1463 27.8508 16.63 27.9567 16.1657 27.7992C15.7024 27.6408 15.3718 27.2457 15.3115 26.7776L14.81 22.8808ZM23.7819 26.3228L26.8072 14.5862L11.6733 19.8383L15.668 21.4917C16.0915 21.667 16.3867 22.0443 16.4434 22.483L16.8798 25.877L18.7082 24.1978L18.5466 24.0643C18.2671 23.8356 18.1027 23.5046 18.0925 23.1531C18.0814 22.8016 18.2272 22.4625 18.4918 22.2187C19.4845 21.3066 22.1327 18.8745 22.1327 18.8745C22.4661 18.5684 22.9954 18.5791 23.3148 18.8986C23.6333 19.2171 23.6222 19.7244 23.2897 20.0305L19.945 23.1033L20.4957 23.5553L23.7819 26.3228Z" fill="white"/>
<defs>
<clipPath id="clip0_112_2">
<rect width="22" height="22" fill="white" transform="translate(69 10)"/>
</clipPath>
</defs>
</svg>
