<svg width="414" height="159" viewBox="0 0 414 159" fill="none" xmlns="http://www.w3.org/2000/svg">
<path d="M70.0542 13H39.6942V97H70.0542C94.5342 97 113.014 79 113.014 55C113.014 30.88 94.5342 13 70.0542 13ZM70.0542 80.68H56.8542V29.32H70.0542C85.1742 29.32 95.8542 39.88 95.8542 55C95.8542 70.12 85.1742 80.68 70.0542 80.68ZM168.273 31V65.68C168.273 76.48 163.113 82.12 153.633 82.12C144.753 82.12 141.513 77.32 141.513 68.68V31H124.353V72.4C124.353 88.48 133.353 98.44 147.873 98.44C156.993 98.44 163.473 94.6 168.273 87.88V97H185.433V31H168.273ZM237.056 29.56C227.816 29.56 220.736 33.88 216.176 40.24V4.6H199.016V97H216.176V88.12C220.856 94.36 227.696 98.44 237.056 98.44C254.216 98.44 267.176 84.28 267.176 64C267.176 43.6 253.976 29.56 237.056 29.56ZM233.096 82.12C223.496 82.12 216.176 74.92 216.176 64C216.176 53.2 223.496 45.88 233.096 45.88C242.696 45.88 249.776 53.2 249.776 64C249.776 74.92 242.576 82.12 233.096 82.12ZM328.492 31V40.24C323.932 33.88 316.972 29.56 307.612 29.56C290.692 29.56 277.612 43.6 277.612 64C277.612 84.28 290.452 98.44 307.732 98.44C316.972 98.44 323.812 94.36 328.372 88.12V97H345.532L345.652 31H328.492ZM311.572 82.12C302.092 82.12 294.892 74.92 294.892 64C294.892 53.2 301.972 45.88 311.572 45.88C321.172 45.88 328.492 53.2 328.492 64C328.492 74.92 321.172 82.12 311.572 82.12ZM367.968 0.519998C361.968 0.519998 357.288 4.71999 357.288 10.6C357.288 16.48 361.968 20.8 367.968 20.8C374.208 20.8 378.648 16.48 378.648 10.6C378.648 4.71999 374.208 0.519998 367.968 0.519998ZM359.328 97H376.488V31H359.328V97Z" fill="white"/>
<path d="M45.1306 149.544V130.6H41.5146V153H55.3386V149.544H45.1306ZM72.5716 130.6V143.848C72.5716 148.2 70.2996 149.928 67.1956 149.928C64.0916 149.928 61.8196 148.2 61.8196 143.848V130.6H58.1396V144.072C58.1396 150.312 62.0436 153.384 67.1956 153.384C72.3476 153.384 76.2516 150.312 76.2516 144.072V130.6H72.5716ZM98.5796 153L91.3156 141.672L98.3556 130.6H94.0676L89.1076 138.6L84.1476 130.6H79.8276L86.8036 141.448L79.5076 153H83.7956L89.0116 144.488L94.2916 153H98.5796ZM116.447 130.6V143.848C116.447 148.2 114.175 149.928 111.071 149.928C107.967 149.928 105.695 148.2 105.695 143.848V130.6H102.015V144.072C102.015 150.312 105.919 153.384 111.071 153.384C116.223 153.384 120.127 150.312 120.127 144.072V130.6H116.447ZM138.674 153H143.122L136.434 144.456C139.986 143.784 142.066 141.384 142.066 137.704C142.066 133.48 139.314 130.6 134.45 130.6H125.202V153H128.818V144.648H132.274L138.674 153ZM128.818 134.056H134.066C137.01 134.056 138.418 135.56 138.418 137.736C138.418 139.912 137.042 141.448 134.066 141.448H128.818V134.056ZM163.659 130.6H159.595L153.771 141.288L147.947 130.6H143.851L151.947 145.352V153H155.563L155.595 145.288L163.659 130.6ZM187.546 153.384C192.73 153.384 196.858 150.248 198.266 145.608H194.394C193.21 148.232 190.682 149.928 187.514 149.928C182.938 149.928 179.642 146.472 179.642 141.8C179.642 137.128 182.938 133.672 187.514 133.672C190.682 133.672 193.21 135.368 194.394 137.992H198.266C196.858 133.352 192.73 130.216 187.546 130.216C180.89 130.216 175.994 135.176 175.994 141.8C175.994 148.424 180.89 153.384 187.546 153.384ZM217.838 153H221.678L213.006 130.6H208.398L199.726 153H203.566L205.838 146.984H215.566L217.838 153ZM207.15 143.56L210.702 134.184L214.254 143.56H207.15ZM238.768 153H243.216L236.528 144.456C240.08 143.784 242.16 141.384 242.16 137.704C242.16 133.48 239.408 130.6 234.544 130.6H225.296V153H228.912V144.648H232.368L238.768 153ZM228.912 134.056H234.16C237.104 134.056 238.512 135.56 238.512 137.736C238.512 139.912 237.136 141.448 234.16 141.448H228.912V134.056ZM269.893 153H274.341L267.653 144.456C271.205 143.784 273.285 141.384 273.285 137.704C273.285 133.48 270.533 130.6 265.669 130.6H256.421V153H260.037V144.648H263.493L269.893 153ZM260.037 134.056H265.285C268.229 134.056 269.637 135.56 269.637 137.736C269.637 139.912 268.261 141.448 265.285 141.448H260.037V134.056ZM292.576 134.056V130.6H277.952V153H292.576V149.544H281.568V143.304H291.776V139.848H281.568V134.056H292.576ZM311.491 130.6V139.976L311.811 147.88L300.611 130.6H296.355V153H299.971V143.624L299.619 135.688L310.819 153H315.107V130.6H311.491ZM335.85 130.6H318.57V134.056H325.386V153H329.002V134.056H335.85V130.6ZM352.87 153H356.71L348.038 130.6H343.43L334.758 153H338.598L340.87 146.984H350.598L352.87 153ZM342.182 143.56L345.734 134.184L349.286 143.56H342.182ZM363.943 149.544V130.6H360.327V153H374.151V149.544H363.943Z" fill="white"/>
</svg>
